<svg width="600" height="600" viewBox="0 0 600 600" fill="none" xmlns="http://www.w3.org/2000/svg">
<path d="M284.666 598.294C282.396 597.553 272.319 596.981 269.251 596.694C263.042 596.102 256.859 595.268 250.716 594.195C213.801 588.017 178.384 574.924 146.327 555.605C79.3843 515.211 30.9322 450.195 11.3576 374.498C-8.49681 297.037 3.52552 214.847 44.7354 146.317C85.1215 79.2098 150.302 30.6994 226.179 11.2793C303.763 -8.53323 386.052 3.6672 454.548 45.1375C521.181 85.5359 569.386 150.376 588.874 225.822C591.95 237.865 594.273 250.087 595.832 262.418C596.301 266.17 596.684 269.933 596.983 273.703C597.247 277.118 597.382 282.04 598.266 285.269V315.207C596.869 320.495 596.764 330.225 596.057 336.131C594.511 348.951 592.141 361.657 588.956 374.173C569.567 449.393 521.676 514.118 455.412 554.656C423.165 574.379 387.461 587.779 350.201 594.145C344.91 595.103 339.587 595.862 334.24 596.419C330.812 596.744 318.804 597.397 316.269 598.294H284.666ZM278.043 589.924L279.493 590.1C280.932 590.439 288.309 590.703 290.215 590.797C287.675 590.032 285.976 589.675 283.362 589.552C281.607 589.323 279.829 589.051 278.074 588.799C236.977 580.634 202.383 554.94 179.184 520.399C157.837 488.615 150.181 457.698 157.715 419.949C165.637 380.803 188.662 346.352 221.803 324.058C242.241 310.37 265.897 302.255 290.434 300.509C304.641 299.595 313.003 300.304 327.481 296.999C384.897 283.891 435.103 230.755 446.863 173.393C453.678 140.139 444.962 103.604 426.288 75.5667C404.052 42.7859 369.736 20.1462 330.85 12.5995C314.778 9.39046 303.224 9.3425 287.127 9.96643C233.798 12.1869 182.131 29.1549 137.87 58.9841C74.378 101.708 30.2897 167.742 15.169 242.762C-0.195145 319.124 15.7138 398.454 59.332 462.989C102.145 526.265 168.135 570.154 243.044 585.178C253.755 587.217 267.116 589.294 278.043 589.924Z" fill="black"/>
<path d="M285.095 591.258C287.71 591.381 289.409 591.738 291.949 592.503C290.043 592.409 282.666 592.146 281.227 591.806C282.695 591.738 283.735 591.955 285.23 591.639L285.095 591.258Z" fill="black" fill-opacity="0.411765"/>
</svg>
